<?xml version="1.0" encoding="utf-8"?>
<!-- Generator: Adobe Illustrator 25.2.0, SVG Export Plug-In . SVG Version: 6.00 Build 0)  -->
<svg version="1.1" id="Слой_1" xmlns="http://www.w3.org/2000/svg" xmlns:xlink="http://www.w3.org/1999/xlink" x="0px" y="0px"
	 viewBox="0 0 130 32" style="enable-background:new 0 0 130 32;" xml:space="preserve">
<style type="text/css">
	.st0{fill-rule:evenodd;clip-rule:evenodd;fill:#121921;}
	.st1{fill-rule:evenodd;clip-rule:evenodd;fill:#EB5B5C;}
</style>
<path class="st0" d="M16.5,1.7c3-0.1,5.9,0.8,8.4,2.5c2.5,1.7,4.3,4.1,5.4,6.9c1,2.8,1.2,5.8,0.4,8.7c-0.3,1.3-1.7,2-2.9,1.7
	c-1.3-0.3-2-1.7-1.7-2.9c0.5-1.9,0.4-3.9-0.2-5.8c-0.7-1.9-1.9-3.5-3.6-4.6c-1.6-1.1-3.6-1.7-5.6-1.6c-2,0-3.9,0.7-5.5,1.9
	c-1.6,1.2-2.8,2.9-3.4,4.7c-0.6,1.9-0.6,3.9,0,5.8c0.6,1.9,1.8,3.5,3.4,4.7c1.6,1.2,3.5,1.8,5.5,1.9c1.3,0,2.4,1.1,2.4,2.4
	c0,1.3-1.1,2.4-2.4,2.4c-3,0-5.9-1-8.3-2.8c-2.4-1.8-4.2-4.2-5.1-7.1s-0.9-5.9,0-8.7c0.9-2.8,2.7-5.3,5-7.1l1.4,1.9L8.2,4.6
	C10.6,2.8,13.5,1.8,16.5,1.7z"/>
<path class="st1" d="M57,25.9h-4.7L51.6,25c-0.9,0.4-1.7,0.6-2.5,0.8c-0.7,0.2-1.5,0.3-2.4,0.3c-2.9,0-5.1-0.7-6.7-2.1
	c-1.7-1.4-2.5-3.6-2.5-6.5c0-2.9,0.8-5.1,2.3-6.6c1.5-1.5,3.8-2.3,7-2.3c3,0,5.3,0.8,6.9,2.4c1.4,1.4,2.1,3.2,2.1,5.3
	c0,1.6-0.1,2.8-0.2,3.5c-0.2,1.1-0.7,2.2-1.4,3.2L57,25.9z M51.6,17.4c0-1.5-0.3-2.8-1-3.7c-0.8-1.2-2.2-1.8-3.9-1.8
	c-1.6,0-2.9,0.5-3.7,1.4c-0.8,0.9-1.2,2.3-1.2,4.1c0,2,0.5,3.5,1.4,4.4C44,22.6,45.3,23,47,23c1.5,0,2.7-0.5,3.4-1.4
	C51.2,20.6,51.6,19.2,51.6,17.4z"/>
<path class="st1" d="M74.5,20.9c0,1.5-0.5,2.7-1.5,3.7c-1,1-2.2,1.5-3.7,1.5H57.4v-3h9.8c0.7,0,1.2-0.2,1.6-0.5
	c0.5-0.4,0.8-0.8,0.8-1.4c0-1.4-1-2.2-3-2.2h-4.9c-1.4,0-2.7-0.5-3.7-1.3c-1.1-0.9-1.6-2-1.6-3.4c0-1.5,0.5-2.7,1.6-3.6
	c1-0.9,2.4-1.4,4.2-1.4h11.3v2.9H63.4c-0.5,0-0.9,0.2-1.3,0.6c-0.5,0.4-0.7,0.8-0.7,1.3c0,0.6,0.2,1.1,0.7,1.4
	c0.5,0.4,1,0.6,1.6,0.6H69c1.7,0,3,0.5,4,1.3C74,18.3,74.5,19.5,74.5,20.9z"/>
<path class="st1" d="M93.8,17.7c0,3.3-0.9,5.6-2.7,7c-1.5,1.1-3.6,1.7-6.4,1.7c-3.1,0-5.4-0.7-6.9-2c-1.6-1.4-2.5-3.7-2.5-6.9
	c0-2.6,0.7-4.7,2.2-6.1c1.6-1.6,4-2.4,7.1-2.4c3.5,0,5.9,0.8,7.3,2.3C93.2,12.6,93.8,14.7,93.8,17.7z M89.5,17.6c0-1.6-0.4-3-1.2-4
	c-0.9-1.1-2.2-1.6-3.9-1.6c-1.7,0-3,0.6-3.8,1.7c-0.7,1-1.1,2.3-1.1,3.8c0,1.8,0.3,3.1,0.9,4c0.8,1.2,2.3,1.8,4.5,1.8
	c1.8,0,3.1-0.6,3.8-1.7C89.2,20.8,89.5,19.4,89.5,17.6z"/>
<path class="st1" d="M110.3,18.8H98.7v7h-4.2V15.5c0-0.6,0.1-1.3,0.4-2.1c0.5-1.4,1.3-2.4,2.6-3.1c1.5-0.8,4-1.2,7.3-1.2
	c7.2,0,14.5,0,21.7,0v2.8h-6.3v14h-3.9v-14c-4,0-7.8-0.1-11.8-0.1c-1.5,0-2.6,0.1-3.2,0.3c-1.1,0.3-1.8,0.9-2.3,1.7
	c-0.4,0.7-0.5,1.4-0.5,2.2h11.7V18.8z"/>
<circle class="st1" cx="25.2" cy="26.4" r="3.8"/>
</svg>
